<svg xmlns="http://www.w3.org/2000/svg" viewBox="0 0 520 600" width="520" height="600" role="img" aria-label="go-touch-grass logo: a mouse cursor clicking on grass blades inside a circle">
  <title>go-touch-grass — CLI reminder for developers to go outside</title>
  <desc>Logo for go-touch-grass: a mouse cursor pointer touching green grass blades inside a white circle. A sarcastic Node.js CLI tool that reminds developers to take outdoor breaks.</desc>
  <defs>
    <!-- Grass gradients -->
    <linearGradient id="grass-bright" x1="0" y1="0" x2="0" y2="1">
      <stop offset="0%" stop-color="#8BC34A"/>
      <stop offset="100%" stop-color="#4CAF50"/>
    </linearGradient>
    <linearGradient id="grass-mid" x1="0" y1="0" x2="0" y2="1">
      <stop offset="0%" stop-color="#7CB342"/>
      <stop offset="100%" stop-color="#388E3C"/>
    </linearGradient>
    <linearGradient id="grass-dark" x1="0" y1="0" x2="0" y2="1">
      <stop offset="0%" stop-color="#689F38"/>
      <stop offset="100%" stop-color="#2E7D32"/>
    </linearGradient>
    <linearGradient id="ground-fill" x1="0" y1="0" x2="0" y2="1">
      <stop offset="0%" stop-color="#8BC34A"/>
      <stop offset="60%" stop-color="#7CB342"/>
      <stop offset="100%" stop-color="#689F38"/>
    </linearGradient>
    <linearGradient id="cursor-body" x1="0" y1="0" x2="1" y2="1">
      <stop offset="0%" stop-color="#1B3A5C"/>
      <stop offset="100%" stop-color="#263850"/>
    </linearGradient>
    <!-- Circle shadow -->
    <filter id="circle-shadow" x="-10%" y="-5%" width="120%" height="120%">
      <feDropShadow dx="0" dy="4" stdDeviation="12" flood-color="#000" flood-opacity="0.1"/>
    </filter>
    <!-- Subtle inner shadow for depth -->
    <filter id="inner-glow" x="-5%" y="-5%" width="110%" height="110%">
      <feDropShadow dx="0" dy="1" stdDeviation="2" flood-color="#000" flood-opacity="0.06"/>
    </filter>
  </defs>

  <!-- Background circle with shadow -->
  <circle cx="260" cy="250" r="195" fill="white" filter="url(#circle-shadow)"/>
  <!-- Subtle border ring -->
  <circle cx="260" cy="250" r="193" fill="none" stroke="#E0E0E0" stroke-width="1.5" opacity="0.5"/>

  <!-- === GRASS CLUSTER === -->
  <!-- Ground strip / base -->
  <ellipse cx="240" cy="370" rx="120" ry="18" fill="url(#ground-fill)" opacity="0.9"/>

  <!-- Back grass blades (lighter, behind cursor) -->
  <!-- Back-left short blade -->
  <path d="M 175 365 Q 160 320 170 280 Q 175 260 185 245"
        stroke="url(#grass-bright)" stroke-width="18" fill="none" stroke-linecap="round"
        filter="url(#inner-glow)"/>
  <!-- Back-right blade -->
  <path d="M 290 360 Q 310 310 300 260 Q 295 240 285 225"
        stroke="url(#grass-bright)" stroke-width="16" fill="none" stroke-linecap="round"
        filter="url(#inner-glow)"/>

  <!-- Mid grass blades -->
  <!-- Mid-left tall blade curving left -->
  <path d="M 200 368 Q 175 300 185 240 Q 190 210 205 185"
        stroke="url(#grass-mid)" stroke-width="20" fill="none" stroke-linecap="round"
        filter="url(#inner-glow)"/>
  <!-- Mid-center blade (tallest, straight up) -->
  <path d="M 235 370 Q 230 290 235 225 Q 238 195 245 170"
        stroke="url(#grass-mid)" stroke-width="22" fill="none" stroke-linecap="round"
        filter="url(#inner-glow)"/>
  <!-- Mid-right blade curving right -->
  <path d="M 265 365 Q 285 300 275 245 Q 270 220 260 200"
        stroke="url(#grass-mid)" stroke-width="18" fill="none" stroke-linecap="round"
        filter="url(#inner-glow)"/>

  <!-- Front grass blades (darkest, in front) -->
  <!-- Front-left blade -->
  <path d="M 210 372 Q 195 330 205 280 Q 210 255 220 235"
        stroke="url(#grass-dark)" stroke-width="15" fill="none" stroke-linecap="round"/>
  <!-- Front-center-right small blade -->
  <path d="M 250 372 Q 260 335 255 300 Q 252 280 248 265"
        stroke="url(#grass-dark)" stroke-width="14" fill="none" stroke-linecap="round"/>

  <!-- === MOUSE CURSOR === -->
  <!-- The cursor pointer — pointing down-left, touching the grass -->
  <g transform="translate(280, 160) rotate(15)">
    <!-- Cursor arrow shape -->
    <path d="M 0 0 L 0 120 L 30 95 L 50 140 L 68 132 L 48 87 L 82 82 Z"
          fill="url(#cursor-body)" stroke="#1B3A5C" stroke-width="7" stroke-linejoin="round" stroke-linecap="round"/>
    <!-- Inner highlight for depth -->
    <path d="M 10 20 L 10 105 L 34 85 L 52 127 L 60 124 L 42 82 L 70 78 Z"
          fill="none" stroke="#3D5A80" stroke-width="1.5" stroke-linejoin="round" opacity="0.4"/>
  </g>

  <!-- === TEXT: touch-grass.js === -->
  <text x="260" y="530" font-family="'Segoe UI', 'Helvetica Neue', 'Arial', sans-serif"
        font-size="56" font-weight="800" fill="#4CAF50" text-anchor="middle"
        letter-spacing="-0.5">go-touch-grass</text>
</svg>
